/* XPM */
static char * close_inactive_xpm[] = {
"30 24 3 1",
" 	c None",
".	c #FDD606",
"+	c #D6A121",
"............++++++++++++++++++",
"..........++++++++++++++++++++",
".........+++++++++++++++++++++",
"........++++++++++++++++++++++",
".......+++++++++++++++++++++++",
"......++++++++++++++++++++++++",
".....+++++++++++++++++++++++++",
"....++++++++++++++++++++++++++",
"...+++++++++++++++++++++++++++",
"..++++++++++++++++++++++++++++",
".+++++++++++++++++++++++++++++",
".+++++++++++++++++++++++++++++",
".+++++++++++++++++++++++++++++",
".+++++++++++++++++++++++++++++",
"..++++++++++++++++++++++++++++",
"...+++++++++++++++++++++++++++",
"....++++++++++++++++++++++++++",
".....+++++++++++++++++++++++++",
"......++++++++++++++++++++++++",
".......+++++++++++++++++++++++",
"........++++++++++++++++++++++",
".........+++++++++++++++++++++",
"..........++++++++++++++++++++",
"...........+++++++++++++++++++"};
