/* XPM */
static char * hide_active_xpm[] = {
"24 24 3 1",
" 	c None",
".	c #F9DA2E",
"+	c #FFE206",
"............++++++++++++",
"..........++++++++++++++",
".........+++++++++++++++",
"........++++++++++++++++",
".......+++++++++++++++++",
"......++++++++++++++++++",
".....+++++++++++++++++++",
"....++++++++++++++++++++",
"...+++++++++++++++++++++",
"..++++++++++++++++++++++",
".+++++++++++++++++++++++",
".+++++++++++++++++++++++",
".+++++++++++++++++++++++",
".+++++++++++++++++++++++",
"..++++++++++++++++++++++",
"...+++++++++++++++++++++",
"....++++++++++++++++++++",
".....+++++++++++++++++++",
"......++++++++++++++++++",
".......+++++++++++++++++",
"........++++++++++++++++",
".........+++++++++++++++",
"..........++++++++++++++",
"...........+++++++++++++"};
