#define bullet_width 6
#define bullet_height 6
static unsigned char bullet_bits[] = {
   0x04, 0x08, 0x10, 0x10, 0x08, 0x04 };
