#define shade_hover_width 8
#define shade_hover_height 8
static unsigned char shade_hover_bits[] = {
   0x00, 0x00, 0x18, 0x24, 0x42, 0x81, 0x00, 0x00 };
