#define desk_hover_toggled_width 8
#define desk_hover_toggled_height 8
static unsigned char desk_hover_toggled_bits[] = {
   0x00, 0x00, 0x00, 0x18, 0x18, 0x00, 0x00, 0x00 };
