#define max_hover_toggled_width 8
#define max_hover_toggled_height 8
static unsigned char max_hover_toggled_bits[] = {
   0x00, 0x08, 0x08, 0x0a, 0x7a, 0x02, 0x1e, 0x00 };
