#define max_hover_width 8
#define max_hover_height 8
static unsigned char max_hover_bits[] = {
   0x00, 0x78, 0x40, 0x42, 0x42, 0x02, 0x1e, 0x00 };
