<?xml version="1.0" encoding="UTF-8" standalone="no"?>
<!-- Created with Inkscape (http://www.inkscape.org/) -->

<svg
   xmlns:dc="http://purl.org/dc/elements/1.1/"
   xmlns:cc="http://creativecommons.org/ns#"
   xmlns:rdf="http://www.w3.org/1999/02/22-rdf-syntax-ns#"
   xmlns:svg="http://www.w3.org/2000/svg"
   xmlns="http://www.w3.org/2000/svg"
   xmlns:sodipodi="http://sodipodi.sourceforge.net/DTD/sodipodi-0.dtd"
   xmlns:inkscape="http://www.inkscape.org/namespaces/inkscape"
   width="300"
   height="300"
   viewBox="0 0 79.374998 79.375002"
   version="1.1"
   id="svg6066"
   inkscape:version="0.92.2 2405546, 2018-03-11"
   sodipodi:docname="1.svg">
  <defs
     id="defs6060" />
  <sodipodi:namedview
     id="base"
     pagecolor="#ffffff"
     bordercolor="#666666"
     borderopacity="1.0"
     inkscape:pageopacity="0.0"
     inkscape:pageshadow="2"
     inkscape:zoom="0.70710678"
     inkscape:cx="18.242752"
     inkscape:cy="298.41129"
     inkscape:document-units="mm"
     inkscape:current-layer="layer1"
     showgrid="false"
     units="px"
     inkscape:snap-bbox="true"
     inkscape:snap-bbox-edge-midpoints="false"
     inkscape:snap-bbox-midpoints="true"
     inkscape:window-width="1600"
     inkscape:window-height="859"
     inkscape:window-x="0"
     inkscape:window-y="0"
     inkscape:window-maximized="1" />
  <metadata
     id="metadata6063">
    <rdf:RDF>
      <cc:Work
         rdf:about="">
        <dc:format>image/svg+xml</dc:format>
        <dc:type
           rdf:resource="http://purl.org/dc/dcmitype/StillImage" />
        <dc:title></dc:title>
      </cc:Work>
    </rdf:RDF>
  </metadata>
  <g
     inkscape:label="Layer 1"
     inkscape:groupmode="layer"
     id="layer1"
     transform="translate(0,-217.62499)">
    <rect
       style="opacity:0.35;fill:none;fill-opacity:1;stroke:none;stroke-width:1.95686281;stroke-miterlimit:4;stroke-dasharray:none;stroke-opacity:1"
       id="rect10629"
       width="79.375"
       height="79.375"
       x="0"
       y="217.62498" />
    <path
       inkscape:connector-curvature="0"
       id="path24"
       style="fill:none;stroke:#211d33;stroke-width:2.25348544;stroke-linecap:butt;stroke-linejoin:miter;stroke-miterlimit:10;stroke-dasharray:none;stroke-opacity:1"
       d="m 68.982811,239.84795 c 0,16.1789 -13.116412,29.29531 -29.29531,29.29531 -16.178899,0 -29.29531,-13.11641 -29.29531,-29.29531" />
    <path
       inkscape:connector-curvature="0"
       id="path28"
       style="fill:none;stroke:#211d33;stroke-width:2.25348544;stroke-linecap:butt;stroke-linejoin:miter;stroke-miterlimit:10;stroke-dasharray:none;stroke-opacity:1"
       d="m 51.588724,233.8973 c 0,6.57229 -11.901783,23.80244 -11.901783,23.80244 0,0 -11.900657,-17.23015 -11.900657,-23.80244 0,-6.57229 5.328367,-11.90178 11.900657,-11.90178 6.573417,0 11.901783,5.32949 11.901783,11.90178 z" />
    <path
       inkscape:connector-curvature="0"
       id="path32"
       style="fill:none;stroke:#211d33;stroke-width:2.25348544;stroke-linecap:butt;stroke-linejoin:miter;stroke-miterlimit:10;stroke-dasharray:none;stroke-opacity:1"
       d="m 68.982811,274.77701 c 0,-16.1789 -13.116412,-29.29531 -29.29531,-29.29531 -16.178899,0 -29.29531,13.11641 -29.29531,29.29531" />
    <path
       inkscape:connector-curvature="0"
       id="path36"
       style="fill:none;stroke:#211d33;stroke-width:2.25348544;stroke-linecap:butt;stroke-linejoin:miter;stroke-miterlimit:10;stroke-dasharray:none;stroke-opacity:1"
       d="m 51.588724,280.72753 c 0,-6.57229 -11.901783,-23.80244 -11.901783,-23.80244 0,0 -11.900657,17.23015 -11.900657,23.80244 0,6.57229 5.328367,11.90178 11.900657,11.90178 6.573417,0 11.901783,-5.32949 11.901783,-11.90178 z" />
    <path
       inkscape:connector-curvature="0"
       id="path40"
       style="fill:none;stroke:#211d33;stroke-width:2.25348544;stroke-linecap:butt;stroke-linejoin:miter;stroke-miterlimit:10;stroke-dasharray:none;stroke-opacity:1"
       d="m 57.152012,286.60778 c -16.178898,0 -29.29531,-13.11641 -29.29531,-29.29531 0,-16.1789 13.116412,-29.29531 29.29531,-29.29531" />
    <path
       inkscape:connector-curvature="0"
       id="path44"
       style="fill:none;stroke:#211d33;stroke-width:2.25348544;stroke-linecap:butt;stroke-linejoin:miter;stroke-miterlimit:10;stroke-dasharray:none;stroke-opacity:1"
       d="m 63.102677,269.21368 c -6.57229,0 -23.80244,-11.90178 -23.80244,-11.90178 0,0 17.23015,-11.90066 23.80244,-11.90066 6.57229,0 11.901783,5.32837 11.901783,11.90066 0,6.57341 -5.329493,11.90178 -11.901783,11.90178 z" />
    <path
       inkscape:connector-curvature="0"
       id="path48"
       style="fill:none;stroke:#211d33;stroke-width:2.25348544;stroke-linecap:butt;stroke-linejoin:miter;stroke-miterlimit:10;stroke-dasharray:none;stroke-opacity:1"
       d="m 22.222991,286.60778 c 16.178898,0 29.29531,-13.11641 29.29531,-29.29531 0,-16.1789 -13.116412,-29.29531 -29.29531,-29.29531" />
    <path
       inkscape:connector-curvature="0"
       id="path52"
       style="fill:none;stroke:#211d33;stroke-width:2.25348544;stroke-linecap:butt;stroke-linejoin:miter;stroke-miterlimit:10;stroke-dasharray:none;stroke-opacity:1"
       d="m 16.272437,269.21368 c 6.57229,0 23.80244,-11.90178 23.80244,-11.90178 0,0 -17.23015,-11.90066 -23.80244,-11.90066 -6.5722902,0 -11.9017831,5.32837 -11.9017831,11.90066 0,6.57341 5.3294929,11.90178 11.9017831,11.90178 z" />
    <path
       inkscape:connector-curvature="0"
       id="path56"
       style="fill:none;stroke:#211d33;stroke-width:2.25348544;stroke-linecap:butt;stroke-linejoin:miter;stroke-miterlimit:10;stroke-dasharray:none;stroke-opacity:1"
       d="m 75.60242,257.31248 c 0,19.83518 -16.079745,35.91492 -35.914924,35.91492 -19.835178,0 -35.9149231,-16.07974 -35.9149231,-35.91492 0,-19.83518 16.0797451,-35.91492 35.9149231,-35.91492 19.835179,0 35.914924,16.07974 35.914924,35.91492 z" />
  </g>
</svg>
