<?xml version="1.0" encoding="UTF-8" standalone="no"?>
<!-- Created with Inkscape (http://www.inkscape.org/) -->

<svg
   xmlns:dc="http://purl.org/dc/elements/1.1/"
   xmlns:cc="http://creativecommons.org/ns#"
   xmlns:rdf="http://www.w3.org/1999/02/22-rdf-syntax-ns#"
   xmlns:svg="http://www.w3.org/2000/svg"
   xmlns="http://www.w3.org/2000/svg"
   xmlns:sodipodi="http://sodipodi.sourceforge.net/DTD/sodipodi-0.dtd"
   xmlns:inkscape="http://www.inkscape.org/namespaces/inkscape"
   width="300"
   height="300"
   viewBox="0 0 79.374998 79.375002"
   version="1.1"
   id="svg6066"
   inkscape:version="0.92.2 2405546, 2018-03-11"
   sodipodi:docname="11.svg">
  <defs
     id="defs6060" />
  <sodipodi:namedview
     id="base"
     pagecolor="#ffffff"
     bordercolor="#666666"
     borderopacity="1.0"
     inkscape:pageopacity="0.0"
     inkscape:pageshadow="2"
     inkscape:zoom="1.4142136"
     inkscape:cx="174.18032"
     inkscape:cy="155.28768"
     inkscape:document-units="mm"
     inkscape:current-layer="layer1"
     showgrid="false"
     units="px"
     inkscape:snap-bbox="true"
     inkscape:snap-bbox-edge-midpoints="false"
     inkscape:snap-bbox-midpoints="true"
     inkscape:window-width="1600"
     inkscape:window-height="859"
     inkscape:window-x="0"
     inkscape:window-y="0"
     inkscape:window-maximized="1" />
  <metadata
     id="metadata6063">
    <rdf:RDF>
      <cc:Work
         rdf:about="">
        <dc:format>image/svg+xml</dc:format>
        <dc:type
           rdf:resource="http://purl.org/dc/dcmitype/StillImage" />
        <dc:title></dc:title>
      </cc:Work>
    </rdf:RDF>
  </metadata>
  <g
     inkscape:label="Layer 1"
     inkscape:groupmode="layer"
     id="layer1"
     transform="translate(0,-217.62499)">
    <rect
       style="opacity:0.35;fill:none;fill-opacity:1;stroke:none;stroke-width:1.95686281;stroke-miterlimit:4;stroke-dasharray:none;stroke-opacity:1"
       id="rect10629"
       width="79.375"
       height="79.375"
       x="0"
       y="217.62498" />
    <path
       inkscape:connector-curvature="0"
       id="path364"
       style="fill:none;stroke:#211d33;stroke-width:2.07309031;stroke-linecap:butt;stroke-linejoin:miter;stroke-miterlimit:10;stroke-dasharray:none;stroke-opacity:1"
       d="m 48.497601,239.69093 c 0,9.82748 -8.810633,17.79437 -8.810633,17.79437 0,0 -8.810634,-7.96689 -8.810634,-17.79437 0,-9.82645 8.810634,-17.79333 8.810634,-17.79333 0,0 8.810633,7.96688 8.810633,17.79333 z" />
    <path
       inkscape:connector-curvature="0"
       id="path368"
       style="fill:none;stroke:#211d33;stroke-width:2.07309031;stroke-linecap:butt;stroke-linejoin:miter;stroke-miterlimit:10;stroke-dasharray:none;stroke-opacity:1"
       d="M 39.686971,257.48528 V 233.29957" />
    <path
       inkscape:connector-curvature="0"
       id="path372"
       style="fill:none;stroke:#211d33;stroke-width:2.07309031;stroke-linecap:butt;stroke-linejoin:miter;stroke-miterlimit:10;stroke-dasharray:none;stroke-opacity:1"
       d="m 48.497601,274.93345 c 0,-9.82645 -8.810633,-17.79333 -8.810633,-17.79333 0,0 -8.810634,7.96688 -8.810634,17.79333 0,9.82748 8.810634,17.79437 8.810634,17.79437 0,0 8.810633,-7.96689 8.810633,-17.79437 z" />
    <path
       inkscape:connector-curvature="0"
       id="path376"
       style="fill:none;stroke:#211d33;stroke-width:2.07309031;stroke-linecap:butt;stroke-linejoin:miter;stroke-miterlimit:10;stroke-dasharray:none;stroke-opacity:1"
       d="m 39.686971,257.14013 v 24.18571" />
    <path
       inkscape:connector-curvature="0"
       id="path380"
       style="fill:none;stroke:#211d33;stroke-width:2.07309031;stroke-linecap:butt;stroke-linejoin:miter;stroke-miterlimit:10;stroke-dasharray:none;stroke-opacity:1"
       d="m 57.308231,266.12282 c -9.827484,0 -17.79437,-8.81063 -17.79437,-8.81063 0,0 7.966886,-8.81064 17.79437,-8.81064 9.827484,0 17.79437,8.81064 17.79437,8.81064 0,0 -7.966886,8.81063 -17.79437,8.81063 z" />
    <path
       inkscape:connector-curvature="0"
       id="path384"
       style="fill:none;stroke:#211d33;stroke-width:2.07309031;stroke-linecap:butt;stroke-linejoin:miter;stroke-miterlimit:10;stroke-dasharray:none;stroke-opacity:1"
       d="M 39.514276,257.31219 H 63.699983" />
    <path
       inkscape:connector-curvature="0"
       id="path388"
       style="fill:none;stroke:#211d33;stroke-width:2.07309031;stroke-linecap:butt;stroke-linejoin:miter;stroke-miterlimit:10;stroke-dasharray:none;stroke-opacity:1"
       d="m 22.065699,266.12282 c 9.827484,0 17.79437,-8.81063 17.79437,-8.81063 0,0 -7.966886,-8.81064 -17.79437,-8.81064 -9.827484,0 -17.7943697,8.81064 -17.7943697,8.81064 0,0 7.9668857,8.81063 17.7943697,8.81063 z" />
    <path
       inkscape:connector-curvature="0"
       id="path392"
       style="fill:none;stroke:#211d33;stroke-width:2.07309031;stroke-linecap:butt;stroke-linejoin:miter;stroke-miterlimit:10;stroke-dasharray:none;stroke-opacity:1"
       d="m 54.684941,252.31366 c -5.576613,5.57558 -15.095206,5.09669 -15.095206,5.09669 0,0 -0.478884,-9.51963 5.096692,-15.0952 5.575576,-5.57662 15.095206,-5.09773 15.095206,-5.09773 0,0 0.478884,9.51963 -5.096692,15.09624 z" />
    <path
       inkscape:connector-curvature="0"
       id="path396"
       style="fill:none;stroke:#211d33;stroke-width:2.07309031;stroke-linecap:butt;stroke-linejoin:miter;stroke-miterlimit:10;stroke-dasharray:none;stroke-opacity:1"
       d="m 34.68792,272.30964 c 5.575576,-5.57558 5.096692,-15.09521 5.096692,-15.09521 0,0 -9.51963,-0.47888 -15.095206,5.0967 -5.575576,5.57661 -5.096692,15.09624 -5.096692,15.09624 0,0 9.51963,0.47888 15.095206,-5.09773 z" />
    <path
       inkscape:connector-curvature="0"
       id="path400"
       style="fill:none;stroke:#211d33;stroke-width:2.07309031;stroke-linecap:butt;stroke-linejoin:miter;stroke-miterlimit:10;stroke-dasharray:none;stroke-opacity:1"
       d="m 44.686431,272.30964 c -5.575576,-5.57558 -5.096692,-15.09521 -5.096692,-15.09521 0,0 9.518593,-0.47888 15.095206,5.0967 5.575576,5.57661 5.096692,15.09624 5.096692,15.09624 0,0 -9.51963,0.47888 -15.095206,-5.09773 z" />
    <path
       inkscape:connector-curvature="0"
       id="path404"
       style="fill:none;stroke:#211d33;stroke-width:2.07309031;stroke-linecap:butt;stroke-linejoin:miter;stroke-miterlimit:10;stroke-dasharray:none;stroke-opacity:1"
       d="m 24.689399,252.31366 c 5.575576,5.57558 15.095206,5.09669 15.095206,5.09669 0,0 0.478884,-9.51963 -5.096692,-15.0952 -5.575576,-5.57662 -15.095206,-5.09773 -15.095206,-5.09773 0,0 -0.478884,9.51963 5.096692,15.09624 z" />
    <path
       inkscape:connector-curvature="0"
       id="path408"
       style="fill:none;stroke:#211d33;stroke-width:2.07309031;stroke-linecap:butt;stroke-linejoin:miter;stroke-miterlimit:10;stroke-dasharray:none;stroke-opacity:1"
       d="M 39.859966,257.31219 H 15.674259" />
    <path
       inkscape:connector-curvature="0"
       id="path412"
       style="fill:none;stroke:#211d33;stroke-width:2.07309031;stroke-linecap:butt;stroke-linejoin:miter;stroke-miterlimit:10;stroke-dasharray:none;stroke-opacity:1"
       d="m 39.686971,292.88879 -35.5752644,-35.5763 35.5752644,-35.5763 35.576301,35.5763 z" />
  </g>
</svg>
