<?xml version="1.0" encoding="UTF-8" standalone="no"?>
<!-- Created with Inkscape (http://www.inkscape.org/) -->

<svg
   xmlns:dc="http://purl.org/dc/elements/1.1/"
   xmlns:cc="http://creativecommons.org/ns#"
   xmlns:rdf="http://www.w3.org/1999/02/22-rdf-syntax-ns#"
   xmlns:svg="http://www.w3.org/2000/svg"
   xmlns="http://www.w3.org/2000/svg"
   xmlns:sodipodi="http://sodipodi.sourceforge.net/DTD/sodipodi-0.dtd"
   xmlns:inkscape="http://www.inkscape.org/namespaces/inkscape"
   width="300"
   height="300"
   viewBox="0 0 79.374998 79.375002"
   version="1.1"
   id="svg6066"
   inkscape:version="0.92.2 2405546, 2018-03-11"
   sodipodi:docname="2.svg">
  <defs
     id="defs6060" />
  <sodipodi:namedview
     id="base"
     pagecolor="#ffffff"
     bordercolor="#666666"
     borderopacity="1.0"
     inkscape:pageopacity="0.0"
     inkscape:pageshadow="2"
     inkscape:zoom="1.4142136"
     inkscape:cx="175.50431"
     inkscape:cy="156.77506"
     inkscape:document-units="mm"
     inkscape:current-layer="layer1"
     showgrid="false"
     units="px"
     inkscape:snap-bbox="true"
     inkscape:snap-bbox-edge-midpoints="false"
     inkscape:snap-bbox-midpoints="true"
     inkscape:window-width="1600"
     inkscape:window-height="859"
     inkscape:window-x="0"
     inkscape:window-y="0"
     inkscape:window-maximized="1" />
  <metadata
     id="metadata6063">
    <rdf:RDF>
      <cc:Work
         rdf:about="">
        <dc:format>image/svg+xml</dc:format>
        <dc:type
           rdf:resource="http://purl.org/dc/dcmitype/StillImage" />
        <dc:title></dc:title>
      </cc:Work>
    </rdf:RDF>
  </metadata>
  <g
     inkscape:label="Layer 1"
     inkscape:groupmode="layer"
     id="layer1"
     transform="translate(0,-217.62499)">
    <rect
       style="opacity:0.35;fill:none;fill-opacity:1;stroke:none;stroke-width:1.95686281;stroke-miterlimit:4;stroke-dasharray:none;stroke-opacity:1"
       id="rect10629"
       width="79.375"
       height="79.375"
       x="0"
       y="217.62498" />
    <path
       inkscape:connector-curvature="0"
       id="path60"
       style="fill:none;stroke:#211d33;stroke-width:1.89177525;stroke-linecap:butt;stroke-linejoin:miter;stroke-miterlimit:10;stroke-dasharray:none;stroke-opacity:1"
       d="m 55.45866,252.9175 c -3.141293,3.14129 -8.234898,3.14129 -11.37619,0 -3.141293,-3.14129 -3.141293,-8.2349 0,-11.37619 3.141292,-3.14129 19.082336,-7.70615 19.082336,-7.70615 0,0 -4.564853,15.94105 -7.706146,19.08234 z" />
    <path
       inkscape:connector-curvature="0"
       id="path64"
       style="fill:none;stroke:#211d33;stroke-width:1.89177525;stroke-linecap:butt;stroke-linejoin:miter;stroke-miterlimit:10;stroke-dasharray:none;stroke-opacity:1"
       d="m 51.824281,251.08258 c -1.631656,1.63166 -4.276358,1.63166 -5.907068,0 -1.63071,-1.63071 -1.63071,-4.27541 0,-5.90707 1.63071,-1.63071 9.908173,-4.0011 9.908173,-4.0011 0,0 -2.370395,8.27746 -4.001105,9.90817 z" />
    <path
       inkscape:connector-curvature="0"
       id="path68"
       style="fill:none;stroke:#211d33;stroke-width:1.89177525;stroke-linecap:butt;stroke-linejoin:miter;stroke-miterlimit:10;stroke-dasharray:none;stroke-opacity:1"
       d="m 31.643766,229.48002 c 0,-4.44283 3.600994,-8.04383 8.043828,-8.04383 4.442834,0 8.043828,3.601 8.043828,8.04383 0,4.44283 -8.043828,18.94235 -8.043828,18.94235 0,0 -8.043828,-14.49952 -8.043828,-18.94235 z" />
    <path
       inkscape:connector-curvature="0"
       id="path72"
       style="fill:none;stroke:#211d33;stroke-width:1.89177525;stroke-linecap:butt;stroke-linejoin:miter;stroke-miterlimit:10;stroke-dasharray:none;stroke-opacity:1"
       d="m 35.510934,228.2076 c 0,-2.30607 1.87002,-4.17704 4.17704,-4.17704 2.306074,0 4.176093,1.87097 4.176093,4.17704 0,2.30607 -4.176093,9.83534 -4.176093,9.83534 0,0 -4.17704,-7.52927 -4.17704,-9.83534 z" />
    <path
       inkscape:connector-curvature="0"
       id="path76"
       style="fill:none;stroke:#211d33;stroke-width:1.89177525;stroke-linecap:butt;stroke-linejoin:miter;stroke-miterlimit:10;stroke-dasharray:none;stroke-opacity:1"
       d="m 56.559297,274.18428 c 9.317939,-9.31794 9.317939,-24.42566 0,-33.74359 -9.317939,-9.31794 -24.425656,-9.31794 -33.743595,0 -9.317938,9.31793 -9.317938,24.42565 0,33.74359 9.317939,9.31794 24.425656,9.31794 33.743595,0 z" />
    <path
       inkscape:connector-curvature="0"
       id="path80"
       style="fill:none;stroke:#211d33;stroke-width:1.89177525;stroke-linecap:butt;stroke-linejoin:miter;stroke-miterlimit:10;stroke-dasharray:none;stroke-opacity:1"
       d="m 44.042841,261.66791 c 2.405392,-2.40539 2.405392,-6.30529 0,-8.71068 -2.405392,-2.40539 -6.305287,-2.40539 -8.710679,0 -2.405392,2.40539 -2.405392,6.30529 0,8.71068 2.405392,2.40539 6.305287,2.40539 8.710679,0 z" />
    <path
       inkscape:connector-curvature="0"
       id="path84"
       style="fill:none;stroke:#211d33;stroke-width:1.89177525;stroke-linecap:butt;stroke-linejoin:miter;stroke-miterlimit:10;stroke-dasharray:none;stroke-opacity:1"
       d="m 31.643766,285.58391 c 0,4.44283 3.600994,8.04383 8.043828,8.04383 4.442834,0 8.043828,-3.601 8.043828,-8.04383 0,-4.44283 -8.043828,-18.94235 -8.043828,-18.94235 0,0 -8.043828,14.49952 -8.043828,18.94235 z" />
    <path
       inkscape:connector-curvature="0"
       id="path88"
       style="fill:none;stroke:#211d33;stroke-width:1.89177525;stroke-linecap:butt;stroke-linejoin:miter;stroke-miterlimit:10;stroke-dasharray:none;stroke-opacity:1"
       d="m 35.510934,286.85633 c 0,2.30607 1.87002,4.17704 4.17704,4.17704 2.306074,0 4.176093,-1.87097 4.176093,-4.17704 0,-2.30607 -4.176093,-9.83534 -4.176093,-9.83534 0,0 -4.17704,7.52927 -4.17704,9.83534 z" />
    <path
       inkscape:connector-curvature="0"
       id="path92"
       style="fill:none;stroke:#211d33;stroke-width:1.89177525;stroke-linecap:butt;stroke-linejoin:miter;stroke-miterlimit:10;stroke-dasharray:none;stroke-opacity:1"
       d="m 67.739498,249.48782 c 4.442834,0 8.043828,3.60194 8.043828,8.04383 0,4.44283 -3.600994,8.04383 -8.043828,8.04383 -4.442834,0 -18.942345,-8.04383 -18.942345,-8.04383 0,0 14.499511,-8.04383 18.942345,-8.04383 z" />
    <path
       inkscape:connector-curvature="0"
       id="path96"
       style="fill:none;stroke:#211d33;stroke-width:1.89177525;stroke-linecap:butt;stroke-linejoin:miter;stroke-miterlimit:10;stroke-dasharray:none;stroke-opacity:1"
       d="m 69.011906,253.35535 c 2.30702,0 4.17704,1.87002 4.17704,4.17704 0,2.30607 -1.87002,4.17609 -4.17704,4.17609 -2.306074,0 -9.835339,-4.17609 -9.835339,-4.17609 0,0 7.529265,-4.17704 9.835339,-4.17704 z" />
    <path
       inkscape:connector-curvature="0"
       id="path100"
       style="fill:none;stroke:#211d33;stroke-width:1.89177525;stroke-linecap:butt;stroke-linejoin:miter;stroke-miterlimit:10;stroke-dasharray:none;stroke-opacity:1"
       d="m 11.635596,249.48782 c -4.4418882,0 -8.0438282,3.60194 -8.0438282,8.04383 0,4.44283 3.60194,8.04383 8.0438282,8.04383 4.442834,0 18.942345,-8.04383 18.942345,-8.04383 0,0 -14.499511,-8.04383 -18.942345,-8.04383 z" />
    <path
       inkscape:connector-curvature="0"
       id="path104"
       style="fill:none;stroke:#211d33;stroke-width:1.89177525;stroke-linecap:butt;stroke-linejoin:miter;stroke-miterlimit:10;stroke-dasharray:none;stroke-opacity:1"
       d="m 10.363187,253.35535 c -2.306074,0 -4.1770397,1.87002 -4.1770397,4.17704 0,2.30607 1.8709657,4.17609 4.1770397,4.17609 2.30702,0 9.835339,-4.17609 9.835339,-4.17609 0,0 -7.528319,-4.17704 -9.835339,-4.17704 z" />
    <path
       inkscape:connector-curvature="0"
       id="path108"
       style="fill:none;stroke:#211d33;stroke-width:1.89177525;stroke-linecap:butt;stroke-linejoin:miter;stroke-miterlimit:10;stroke-dasharray:none;stroke-opacity:1"
       d="m 35.413033,272.96313 c 3.141293,-3.14129 3.141293,-8.2349 0,-11.37619 -3.141293,-3.14129 -8.234898,-3.14129 -11.37619,0 -3.141293,3.14129 -7.706147,19.08234 -7.706147,19.08234 0,0 15.941044,-4.56486 19.082337,-7.70615 z" />
    <path
       inkscape:connector-curvature="0"
       id="path112"
       style="fill:none;stroke:#211d33;stroke-width:1.89177525;stroke-linecap:butt;stroke-linejoin:miter;stroke-miterlimit:10;stroke-dasharray:none;stroke-opacity:1"
       d="m 33.578107,269.32874 c 1.63071,-1.63071 1.63071,-4.27541 0,-5.90707 -1.631656,-1.63071 -4.276358,-1.63071 -5.907068,0 -1.63071,1.63166 -4.001105,9.90817 -4.001105,9.90817 0,0 8.276517,-2.36944 9.908173,-4.0011 z" />
    <path
       inkscape:connector-curvature="0"
       id="path116"
       style="fill:none;stroke:#211d33;stroke-width:1.89177525;stroke-linecap:butt;stroke-linejoin:miter;stroke-miterlimit:10;stroke-dasharray:none;stroke-opacity:1"
       d="m 44.08257,272.96313 c -3.141293,-3.14129 -3.141293,-8.2349 0,-11.37619 3.141293,-3.14129 8.234898,-3.14129 11.37619,0 3.141293,3.14129 7.706147,19.08234 7.706147,19.08234 0,0 -15.941044,-4.56486 -19.082337,-7.70615 z" />
    <path
       inkscape:connector-curvature="0"
       id="path120"
       style="fill:none;stroke:#211d33;stroke-width:1.89177525;stroke-linecap:butt;stroke-linejoin:miter;stroke-miterlimit:10;stroke-dasharray:none;stroke-opacity:1"
       d="m 45.917586,269.32874 c -1.631656,-1.63071 -1.631656,-4.27541 0,-5.90707 1.63071,-1.63071 4.275412,-1.63071 5.907068,0 1.63071,1.63166 4.001105,9.90817 4.001105,9.90817 0,0 -8.277463,-2.36944 -9.908173,-4.0011 z" />
    <path
       inkscape:connector-curvature="0"
       id="path124"
       style="fill:none;stroke:#211d33;stroke-width:1.89177525;stroke-linecap:butt;stroke-linejoin:miter;stroke-miterlimit:10;stroke-dasharray:none;stroke-opacity:1"
       d="m 24.037034,252.9175 c 3.141293,3.14129 8.234898,3.14129 11.37619,0 3.141293,-3.14129 3.141293,-8.2349 0,-11.37619 -3.141292,-3.14129 -19.082336,-7.70615 -19.082336,-7.70615 0,0 4.564853,15.94105 7.706146,19.08234 z" />
    <path
       inkscape:connector-curvature="0"
       id="path128"
       style="fill:none;stroke:#211d33;stroke-width:1.89177525;stroke-linecap:butt;stroke-linejoin:miter;stroke-miterlimit:10;stroke-dasharray:none;stroke-opacity:1"
       d="m 27.671321,251.08258 c 1.63071,1.63166 4.275412,1.63166 5.907068,0 1.63071,-1.63071 1.63071,-4.27541 0,-5.90707 -1.631656,-1.63071 -9.908173,-4.0011 -9.908173,-4.0011 0,0 2.369449,8.27746 4.001105,9.90817 z" />
  </g>
</svg>
