<?xml version="1.0" encoding="UTF-8" standalone="no"?>
<!-- Created with Inkscape (http://www.inkscape.org/) -->

<svg
   xmlns:dc="http://purl.org/dc/elements/1.1/"
   xmlns:cc="http://creativecommons.org/ns#"
   xmlns:rdf="http://www.w3.org/1999/02/22-rdf-syntax-ns#"
   xmlns:svg="http://www.w3.org/2000/svg"
   xmlns="http://www.w3.org/2000/svg"
   xmlns:sodipodi="http://sodipodi.sourceforge.net/DTD/sodipodi-0.dtd"
   xmlns:inkscape="http://www.inkscape.org/namespaces/inkscape"
   width="300"
   height="300"
   viewBox="0 0 79.374998 79.375002"
   version="1.1"
   id="svg6066"
   inkscape:version="0.92.2 2405546, 2018-03-11"
   sodipodi:docname="5.svg">
  <defs
     id="defs6060" />
  <sodipodi:namedview
     id="base"
     pagecolor="#ffffff"
     bordercolor="#666666"
     borderopacity="1.0"
     inkscape:pageopacity="0.0"
     inkscape:pageshadow="2"
     inkscape:zoom="1.4142136"
     inkscape:cx="174.18032"
     inkscape:cy="155.28768"
     inkscape:document-units="mm"
     inkscape:current-layer="layer1"
     showgrid="false"
     units="px"
     inkscape:snap-bbox="true"
     inkscape:snap-bbox-edge-midpoints="false"
     inkscape:snap-bbox-midpoints="true"
     inkscape:window-width="1600"
     inkscape:window-height="859"
     inkscape:window-x="0"
     inkscape:window-y="0"
     inkscape:window-maximized="1" />
  <metadata
     id="metadata6063">
    <rdf:RDF>
      <cc:Work
         rdf:about="">
        <dc:format>image/svg+xml</dc:format>
        <dc:type
           rdf:resource="http://purl.org/dc/dcmitype/StillImage" />
        <dc:title></dc:title>
      </cc:Work>
    </rdf:RDF>
  </metadata>
  <g
     inkscape:label="Layer 1"
     inkscape:groupmode="layer"
     id="layer1"
     transform="translate(0,-217.62499)">
    <rect
       style="opacity:0.35;fill:none;fill-opacity:1;stroke:none;stroke-width:1.95686281;stroke-miterlimit:4;stroke-dasharray:none;stroke-opacity:1"
       id="rect10629"
       width="79.375"
       height="79.375"
       x="0"
       y="217.62498" />
    <path
       inkscape:connector-curvature="0"
       id="path184"
       style="fill:none;stroke:#211d33;stroke-width:2.27762151;stroke-linecap:butt;stroke-linejoin:miter;stroke-miterlimit:10;stroke-dasharray:none;stroke-opacity:1"
       d="m 48.418419,221.43994 c 0,4.82172 -3.909537,8.73127 -8.731262,8.73127 -4.821724,0 -8.730125,-3.90955 -8.730125,-8.73127" />
    <path
       inkscape:connector-curvature="0"
       id="path188"
       style="fill:none;stroke:#211d33;stroke-width:2.27762151;stroke-linecap:butt;stroke-linejoin:miter;stroke-miterlimit:10;stroke-dasharray:none;stroke-opacity:1"
       d="m 30.956468,293.18447 c 0,-4.82059 3.909537,-8.73011 8.731262,-8.73011 4.821724,0 8.730125,3.90952 8.730125,8.73011" />
    <path
       inkscape:connector-curvature="0"
       id="path192"
       style="fill:none;stroke:#211d33;stroke-width:2.27762151;stroke-linecap:butt;stroke-linejoin:miter;stroke-miterlimit:10;stroke-dasharray:none;stroke-opacity:1"
       d="m 35.622975,220.61693 c 1.648997,4.53132 -0.687842,9.54095 -5.218032,11.1911 -4.531325,1.64899 -9.540955,-0.68785 -11.191092,-5.21804" />
    <path
       inkscape:connector-curvature="0"
       id="path196"
       style="fill:none;stroke:#211d33;stroke-width:2.27762151;stroke-linecap:butt;stroke-linejoin:miter;stroke-miterlimit:10;stroke-dasharray:none;stroke-opacity:1"
       d="m 43.752485,294.00735 c -1.648998,-4.53132 0.686703,-9.54095 5.218031,-11.18994 4.531326,-1.64902 9.540955,0.68669 11.191092,5.21801" />
    <path
       inkscape:connector-curvature="0"
       id="path200"
       style="fill:none;stroke:#211d33;stroke-width:2.27762151;stroke-linecap:butt;stroke-linejoin:miter;stroke-miterlimit:10;stroke-dasharray:none;stroke-opacity:1"
       d="m 23.317327,224.22023 c 3.099843,3.6943 2.618126,9.20157 -1.076176,12.30028 -3.693162,3.09984 -9.200453,2.61814 -12.3002965,-1.07616" />
    <path
       inkscape:connector-curvature="0"
       id="path204"
       style="fill:none;stroke:#211d33;stroke-width:2.27762151;stroke-linecap:butt;stroke-linejoin:miter;stroke-miterlimit:10;stroke-dasharray:none;stroke-opacity:1"
       d="m 56.057561,290.40415 c -3.099842,-3.69317 -2.616986,-9.20045 1.076176,-12.30029 3.693163,-3.09871 9.200454,-2.61814 12.300293,1.07732" />
    <path
       inkscape:connector-curvature="0"
       id="path208"
       style="fill:none;stroke:#211d33;stroke-width:2.27762151;stroke-linecap:butt;stroke-linejoin:miter;stroke-miterlimit:10;stroke-dasharray:none;stroke-opacity:1"
       d="m 12.986259,231.81487 c 4.176018,2.41087 5.606365,7.75077 3.195501,11.92676 -2.41086,4.17604 -7.7507445,5.60639 -11.9267635,3.19553" />
    <path
       inkscape:connector-curvature="0"
       id="path212"
       style="fill:none;stroke:#211d33;stroke-width:2.27762151;stroke-linecap:butt;stroke-linejoin:miter;stroke-miterlimit:10;stroke-dasharray:none;stroke-opacity:1"
       d="m 66.38863,282.80944 c -4.176019,-2.41086 -5.606366,-7.75076 -3.195502,-11.92676 2.41086,-4.17604 7.750742,-5.60639 11.926761,-3.19552" />
    <path
       inkscape:connector-curvature="0"
       id="path216"
       style="fill:none;stroke:#211d33;stroke-width:2.27762151;stroke-linecap:butt;stroke-linejoin:miter;stroke-miterlimit:10;stroke-dasharray:none;stroke-opacity:1"
       d="m 5.8759775,242.4846 c 4.7488395,0.83702 7.9192915,5.36608 7.0822645,10.11491 -0.837027,4.74886 -5.3660775,7.9193 -10.1149175,7.08228" />
    <path
       inkscape:connector-curvature="0"
       id="path220"
       style="fill:none;stroke:#211d33;stroke-width:2.27762151;stroke-linecap:butt;stroke-linejoin:miter;stroke-miterlimit:10;stroke-dasharray:none;stroke-opacity:1"
       d="m 73.49891,272.1398 c -4.74884,-0.83702 -7.91929,-5.36607 -7.082263,-10.11378 0.838163,-4.74883 5.366073,-7.9193 10.114913,-7.08341" />
    <path
       inkscape:connector-curvature="0"
       id="path224"
       style="fill:none;stroke:#211d33;stroke-width:2.27762151;stroke-linecap:butt;stroke-linejoin:miter;stroke-miterlimit:10;stroke-dasharray:none;stroke-opacity:1"
       d="m 2.8437835,254.94307 c 4.748839,-0.83702 9.2767535,2.33341 10.1149165,7.08224 0.837027,4.74887 -2.333421,9.27676 -7.0822645,10.11495" />
    <path
       inkscape:connector-curvature="0"
       id="path228"
       style="fill:none;stroke:#211d33;stroke-width:2.27762151;stroke-linecap:butt;stroke-linejoin:miter;stroke-miterlimit:10;stroke-dasharray:none;stroke-opacity:1"
       d="m 76.5311,259.68121 c -4.74884,0.83702 -9.276749,-2.33342 -10.113772,-7.08225 -0.838167,-4.74886 2.332282,-9.27676 7.081122,-10.11494" />
    <path
       inkscape:connector-curvature="0"
       id="path232"
       style="fill:none;stroke:#211d33;stroke-width:2.27762151;stroke-linecap:butt;stroke-linejoin:miter;stroke-miterlimit:10;stroke-dasharray:none;stroke-opacity:1"
       d="m 4.2555645,267.68741 c 4.176019,-2.41086 9.5159035,-0.98051 11.9267675,3.19549 2.41086,4.17603 0.979374,9.51593 -3.195505,11.92679" />
    <path
       inkscape:connector-curvature="0"
       id="path236"
       style="fill:none;stroke:#211d33;stroke-width:2.27762151;stroke-linecap:butt;stroke-linejoin:miter;stroke-miterlimit:10;stroke-dasharray:none;stroke-opacity:1"
       d="m 75.11932,246.93748 c -4.17602,2.41086 -9.51476,0.97938 -11.926763,-3.19665 -2.410861,-4.17487 -0.979375,-9.51477 3.195504,-11.92563" />
    <path
       inkscape:connector-curvature="0"
       id="path240"
       style="fill:none;stroke:#211d33;stroke-width:2.27762151;stroke-linecap:butt;stroke-linejoin:miter;stroke-miterlimit:10;stroke-dasharray:none;stroke-opacity:1"
       d="m 9.9407385,279.1806 c 3.0998435,-3.69429 8.6071295,-4.17603 12.3002955,-1.07616 3.694301,3.09868 4.176018,8.60599 1.076176,12.29913" />
    <path
       inkscape:connector-curvature="0"
       id="path244"
       style="fill:none;stroke:#211d33;stroke-width:2.27762151;stroke-linecap:butt;stroke-linejoin:miter;stroke-miterlimit:10;stroke-dasharray:none;stroke-opacity:1"
       d="m 69.43415,235.44426 c -3.099844,3.69429 -8.607131,4.17603 -12.300297,1.07616 -3.693162,-3.09868 -4.176018,-8.60599 -1.076177,-12.30029" />
    <path
       inkscape:connector-curvature="0"
       id="path248"
       style="fill:none;stroke:#211d33;stroke-width:2.27762151;stroke-linecap:butt;stroke-linejoin:miter;stroke-miterlimit:10;stroke-dasharray:none;stroke-opacity:1"
       d="m 19.214193,288.03532 c 1.648997,-4.53132 6.659764,-6.86703 11.191093,-5.21804 4.530188,1.64899 6.867028,6.65978 5.218031,11.18997" />
    <path
       inkscape:connector-curvature="0"
       id="path252"
       style="fill:none;stroke:#211d33;stroke-width:2.27762151;stroke-linecap:butt;stroke-linejoin:miter;stroke-miterlimit:10;stroke-dasharray:none;stroke-opacity:1"
       d="m 60.16127,226.58954 c -1.648997,4.53132 -6.659764,6.86703 -11.191093,5.21804 -4.531328,-1.64899 -6.867028,-6.65978 -5.218031,-11.1911" />
    <path
       inkscape:connector-curvature="0"
       id="path256"
       style="fill:none;stroke:#211d33;stroke-width:2.27762151;stroke-linecap:butt;stroke-linejoin:miter;stroke-miterlimit:10;stroke-dasharray:none;stroke-opacity:1"
       d="M 30.180256,280.266 16.734318,266.82005 v -19.01472 l 13.445937,-13.44708 h 19.014722 l 13.445941,13.44708 v 19.01472 L 49.194977,280.266 Z" />
    <path
       inkscape:connector-curvature="0"
       id="path260"
       style="fill:none;stroke:#211d33;stroke-width:2.27762151;stroke-linecap:butt;stroke-linejoin:miter;stroke-miterlimit:10;stroke-dasharray:none;stroke-opacity:1"
       d="m 59.339956,257.31248 c 0,10.85399 -8.798451,19.65247 -19.652456,19.65247 -10.854006,0 -19.652457,-8.79848 -19.652457,-19.65247 0,-10.85399 8.798451,-19.65247 19.652457,-19.65247 10.854005,0 19.652456,8.79848 19.652456,19.65247 z" />
  </g>
</svg>
