<?xml version="1.0" encoding="UTF-8" standalone="no"?>
<!-- Created with Inkscape (http://www.inkscape.org/) -->

<svg
   xmlns:dc="http://purl.org/dc/elements/1.1/"
   xmlns:cc="http://creativecommons.org/ns#"
   xmlns:rdf="http://www.w3.org/1999/02/22-rdf-syntax-ns#"
   xmlns:svg="http://www.w3.org/2000/svg"
   xmlns="http://www.w3.org/2000/svg"
   xmlns:sodipodi="http://sodipodi.sourceforge.net/DTD/sodipodi-0.dtd"
   xmlns:inkscape="http://www.inkscape.org/namespaces/inkscape"
   width="300"
   height="300"
   viewBox="0 0 79.374998 79.375002"
   version="1.1"
   id="svg6066"
   inkscape:version="0.92.2 2405546, 2018-03-11"
   sodipodi:docname="7.svg">
  <defs
     id="defs6060" />
  <sodipodi:namedview
     id="base"
     pagecolor="#ffffff"
     bordercolor="#666666"
     borderopacity="1.0"
     inkscape:pageopacity="0.0"
     inkscape:pageshadow="2"
     inkscape:zoom="1.4142136"
     inkscape:cx="174.18032"
     inkscape:cy="155.28768"
     inkscape:document-units="mm"
     inkscape:current-layer="layer1"
     showgrid="false"
     units="px"
     inkscape:snap-bbox="true"
     inkscape:snap-bbox-edge-midpoints="false"
     inkscape:snap-bbox-midpoints="true"
     inkscape:window-width="1600"
     inkscape:window-height="859"
     inkscape:window-x="0"
     inkscape:window-y="0"
     inkscape:window-maximized="1" />
  <metadata
     id="metadata6063">
    <rdf:RDF>
      <cc:Work
         rdf:about="">
        <dc:format>image/svg+xml</dc:format>
        <dc:type
           rdf:resource="http://purl.org/dc/dcmitype/StillImage" />
        <dc:title></dc:title>
      </cc:Work>
    </rdf:RDF>
  </metadata>
  <g
     inkscape:label="Layer 1"
     inkscape:groupmode="layer"
     id="layer1"
     transform="translate(0,-217.62499)">
    <rect
       style="opacity:0.35;fill:none;fill-opacity:1;stroke:none;stroke-width:1.95686281;stroke-miterlimit:4;stroke-dasharray:none;stroke-opacity:1"
       id="rect10629"
       width="79.375"
       height="79.375"
       x="0"
       y="217.62498" />
    <path
       inkscape:connector-curvature="0"
       id="path316"
       style="fill:none;stroke:#211d33;stroke-width:2.42016387;stroke-linecap:butt;stroke-linejoin:miter;stroke-miterlimit:10;stroke-dasharray:none;stroke-opacity:1"
       d="m 68.018672,245.09559 c -4.44947,4.45068 -22.105776,5.98991 -22.105776,5.98991 0,0 1.540434,-17.6551 5.991116,-22.10457 4.44947,-4.45068 11.66519,-4.45068 16.11466,0 4.45068,4.44947 4.45068,11.66519 0,16.11466 z" />
    <path
       inkscape:connector-curvature="0"
       id="path320"
       style="fill:none;stroke:#211d33;stroke-width:2.42016387;stroke-linecap:butt;stroke-linejoin:miter;stroke-miterlimit:10;stroke-dasharray:none;stroke-opacity:1"
       d="m 27.471481,285.64337 c 4.449471,-4.45068 5.989905,-22.10578 5.989905,-22.10578 0,0 -17.656305,1.54044 -22.104566,5.99112 -4.4506814,4.44947 -4.4506814,11.66398 0,16.11466 4.448261,4.45068 11.66398,4.45068 16.114661,0 z" />
    <path
       inkscape:connector-curvature="0"
       id="path324"
       style="fill:none;stroke:#211d33;stroke-width:2.42016387;stroke-linecap:butt;stroke-linejoin:miter;stroke-miterlimit:10;stroke-dasharray:none;stroke-opacity:1"
       d="m 51.903532,285.64337 c -4.450681,-4.45068 -5.989905,-22.10578 -5.989905,-22.10578 0,0 17.656305,1.54044 22.104565,5.99112 4.45068,4.44947 4.45068,11.66398 0,16.11466 -4.44826,4.45068 -11.66398,4.45068 -16.11466,0 z" />
    <path
       inkscape:connector-curvature="0"
       id="path328"
       style="fill:none;stroke:#211d33;stroke-width:2.42016387;stroke-linecap:butt;stroke-linejoin:miter;stroke-miterlimit:10;stroke-dasharray:none;stroke-opacity:1"
       d="m 11.356339,245.09559 c 4.449471,4.45068 22.105776,5.98991 22.105776,5.98991 0,0 -1.541644,-17.6551 -5.991115,-22.10457 -4.449471,-4.45068 -11.66519,-4.45068 -16.114661,0 -4.4506814,4.44947 -4.4506814,11.66519 0,16.11466 z" />
    <path
       inkscape:connector-curvature="0"
       id="path332"
       style="fill:none;stroke:#211d33;stroke-width:2.42016387;stroke-linecap:butt;stroke-linejoin:miter;stroke-miterlimit:10;stroke-dasharray:none;stroke-opacity:1"
       d="m 39.686895,237.77304 6.908358,12.63083 12.630839,6.90836 -12.630839,6.90715 -6.908358,12.63204 -6.907147,-12.63204 -12.630835,-6.90715 12.630835,-6.90836 z" />
    <path
       inkscape:connector-curvature="0"
       id="path336"
       style="fill:none;stroke:#211d33;stroke-width:2.42016387;stroke-linecap:butt;stroke-linejoin:miter;stroke-miterlimit:10;stroke-dasharray:none;stroke-opacity:1"
       d="m 47.197875,225.89089 7.250807,13.25766 c 0.78656,1.43636 1.96639,2.6174 3.40275,3.40275 l 13.25766,7.2496 c 5.93666,3.24786 5.93666,11.77531 0,15.02195 l -13.25766,7.25082 c -1.43636,0.78534 -2.61619,1.96638 -3.40275,3.40275 l -7.250807,13.25765 c -3.24786,5.93667 -11.772887,5.93667 -15.020747,0 l -7.25081,-13.25765 c -0.786554,-1.43637 -1.966383,-2.61741 -3.402751,-3.40275 L 8.2659096,264.82285 c -5.936662,-3.24664 -5.936662,-11.77409 0,-15.02195 l 13.2576574,-7.2496 c 1.436368,-0.78535 2.616197,-1.96639 3.402751,-3.40275 l 7.25081,-13.25766 c 3.24786,-5.93666 11.772887,-5.93666 15.020747,0 z" />
    <path
       inkscape:connector-curvature="0"
       id="path340"
       style="fill:none;stroke:#211d33;stroke-width:2.42016387;stroke-linecap:butt;stroke-linejoin:miter;stroke-miterlimit:10;stroke-dasharray:none;stroke-opacity:1"
       d="m 39.686895,237.77304 v 39.07838" />
    <path
       inkscape:connector-curvature="0"
       id="path344"
       style="fill:none;stroke:#211d33;stroke-width:2.42016387;stroke-linecap:butt;stroke-linejoin:miter;stroke-miterlimit:10;stroke-dasharray:none;stroke-opacity:1"
       d="M 20.148313,257.31222 H 59.226702" />
  </g>
</svg>
